<?xml version="1.0" encoding="utf-8" standalone="no"?>
<!DOCTYPE svg PUBLIC "-//W3C//DTD SVG 1.1//EN"
  "http://www.w3.org/Graphics/SVG/1.1/DTD/svg11.dtd">
<svg xmlns:xlink="http://www.w3.org/1999/xlink" width="390.956562pt" height="217.420156pt" viewBox="0 0 390.956562 217.420156" xmlns="http://www.w3.org/2000/svg" version="1.1">
 <metadata>
  <rdf:RDF xmlns:dc="http://purl.org/dc/elements/1.1/" xmlns:cc="http://creativecommons.org/ns#" xmlns:rdf="http://www.w3.org/1999/02/22-rdf-syntax-ns#">
   <cc:Work>
    <dc:type rdf:resource="http://purl.org/dc/dcmitype/StillImage"/>
    <dc:date>2026-05-28T12:21:26.820222</dc:date>
    <dc:format>image/svg+xml</dc:format>
    <dc:creator>
     <cc:Agent>
      <dc:title>Matplotlib v3.10.9, https://matplotlib.org/</dc:title>
     </cc:Agent>
    </dc:creator>
   </cc:Work>
  </rdf:RDF>
 </metadata>
 <defs>
  <style type="text/css">*{stroke-linejoin: round; stroke-linecap: butt}</style>
 </defs>
 <g id="figure_1">
  <g id="patch_1">
   <path d="M 0 217.420156 
L 390.956562 217.420156 
L 390.956562 0 
L 0 0 
z
" style="fill: #ffffff"/>
  </g>
  <g id="axes_1">
   <g id="patch_2">
    <path d="M 28.256563 192.898594 
L 389.516562 192.898594 
L 389.516562 14.278594 
L 28.256563 14.278594 
z
" style="fill: #ffffff"/>
   </g>
   <g id="matplotlib.axis_1">
    <g id="xtick_1">
     <g id="text_1">
      <text style="font-size: 6px; font-family: 'Arial', 'Helvetica', 'DejaVu Sans', sans-serif; text-anchor: middle" x="41.360116" y="203.957656" transform="rotate(-0 41.360116 203.957656)">0</text>
     </g>
    </g>
    <g id="xtick_2">
     <g id="text_2">
      <text style="font-size: 6px; font-family: 'Arial', 'Helvetica', 'DejaVu Sans', sans-serif; text-anchor: middle" x="107.707224" y="203.957656" transform="rotate(-0 107.707224 203.957656)">20</text>
     </g>
    </g>
    <g id="xtick_3">
     <g id="text_3">
      <text style="font-size: 6px; font-family: 'Arial', 'Helvetica', 'DejaVu Sans', sans-serif; text-anchor: middle" x="174.054331" y="203.957656" transform="rotate(-0 174.054331 203.957656)">40</text>
     </g>
    </g>
    <g id="xtick_4">
     <g id="text_4">
      <text style="font-size: 6px; font-family: 'Arial', 'Helvetica', 'DejaVu Sans', sans-serif; text-anchor: middle" x="240.401439" y="203.957656" transform="rotate(-0 240.401439 203.957656)">60</text>
     </g>
    </g>
    <g id="xtick_5">
     <g id="text_5">
      <text style="font-size: 6px; font-family: 'Arial', 'Helvetica', 'DejaVu Sans', sans-serif; text-anchor: middle" x="306.748546" y="203.957656" transform="rotate(-0 306.748546 203.957656)">80</text>
     </g>
    </g>
    <g id="xtick_6">
     <g id="text_6">
      <text style="font-size: 6px; font-family: 'Arial', 'Helvetica', 'DejaVu Sans', sans-serif; text-anchor: middle" x="373.095653" y="203.957656" transform="rotate(-0 373.095653 203.957656)">100</text>
     </g>
    </g>
    <g id="text_7">
     <text style="font-size: 7px; font-family: 'Arial', 'Helvetica', 'DejaVu Sans', sans-serif; text-anchor: middle" x="208.886562" y="214.524375" transform="rotate(-0 208.886562 214.524375)">RL step</text>
    </g>
   </g>
   <g id="matplotlib.axis_2">
    <g id="ytick_1">
     <g id="text_8">
      <text style="font-size: 6px; font-family: 'Arial', 'Helvetica', 'DejaVu Sans', sans-serif; text-anchor: end" x="21.756563" y="195.178125" transform="rotate(-0 21.756563 195.178125)">0.0</text>
     </g>
    </g>
    <g id="ytick_2">
     <g id="text_9">
      <text style="font-size: 6px; font-family: 'Arial', 'Helvetica', 'DejaVu Sans', sans-serif; text-anchor: end" x="21.756563" y="174.164007" transform="rotate(-0 21.756563 174.164007)">0.1</text>
     </g>
    </g>
    <g id="ytick_3">
     <g id="text_10">
      <text style="font-size: 6px; font-family: 'Arial', 'Helvetica', 'DejaVu Sans', sans-serif; text-anchor: end" x="21.756563" y="153.14989" transform="rotate(-0 21.756563 153.14989)">0.2</text>
     </g>
    </g>
    <g id="ytick_4">
     <g id="text_11">
      <text style="font-size: 6px; font-family: 'Arial', 'Helvetica', 'DejaVu Sans', sans-serif; text-anchor: end" x="21.756563" y="132.135772" transform="rotate(-0 21.756563 132.135772)">0.3</text>
     </g>
    </g>
    <g id="ytick_5">
     <g id="text_12">
      <text style="font-size: 6px; font-family: 'Arial', 'Helvetica', 'DejaVu Sans', sans-serif; text-anchor: end" x="21.756563" y="111.121654" transform="rotate(-0 21.756563 111.121654)">0.4</text>
     </g>
    </g>
    <g id="ytick_6">
     <g id="text_13">
      <text style="font-size: 6px; font-family: 'Arial', 'Helvetica', 'DejaVu Sans', sans-serif; text-anchor: end" x="21.756563" y="90.107537" transform="rotate(-0 21.756563 90.107537)">0.5</text>
     </g>
    </g>
    <g id="ytick_7">
     <g id="text_14">
      <text style="font-size: 6px; font-family: 'Arial', 'Helvetica', 'DejaVu Sans', sans-serif; text-anchor: end" x="21.756563" y="69.093419" transform="rotate(-0 21.756563 69.093419)">0.6</text>
     </g>
    </g>
    <g id="ytick_8">
     <g id="text_15">
      <text style="font-size: 6px; font-family: 'Arial', 'Helvetica', 'DejaVu Sans', sans-serif; text-anchor: end" x="21.756563" y="48.079301" transform="rotate(-0 21.756563 48.079301)">0.7</text>
     </g>
    </g>
    <g id="ytick_9">
     <g id="text_16">
      <text style="font-size: 6px; font-family: 'Arial', 'Helvetica', 'DejaVu Sans', sans-serif; text-anchor: end" x="21.756563" y="27.065184" transform="rotate(-0 21.756563 27.065184)">0.8</text>
     </g>
    </g>
    <g id="text_17">
     <text style="font-size: 7px; font-family: 'Arial', 'Helvetica', 'DejaVu Sans', sans-serif; text-anchor: middle" x="6.758906" y="103.588594" transform="rotate(-90 6.758906 103.588594)">Composite reward</text>
    </g>
   </g>
   <g id="FillBetweenPolyCollection_1"/>
   <g id="FillBetweenPolyCollection_2"/>
   <g id="line2d_1">
    <path d="M 44.677472 59.205979 
L 47.994827 53.460299 
L 51.312182 66.441055 
L 54.629538 52.350753 
L 57.946893 54.366764 
L 61.264248 48.732185 
L 64.581604 54.213928 
L 67.898959 49.449145 
L 71.216315 57.774161 
L 74.53367 42.800026 
L 77.851025 49.483902 
L 81.168381 62.339709 
L 84.485736 58.686972 
L 87.803091 48.002659 
L 91.120447 53.095578 
L 94.437802 50.967016 
L 97.755158 48.263255 
L 101.072513 53.873226 
L 104.389868 52.748761 
L 107.707224 58.608148 
L 111.024579 57.035956 
L 114.341934 56.896275 
L 117.65929 62.975722 
L 120.976645 54.043609 
L 124.294001 55.142395 
L 127.611356 54.119301 
L 130.928711 50.73586 
L 134.246067 43.856111 
L 137.563422 62.566767 
L 140.880777 45.17376 
L 144.198133 49.857512 
L 147.515488 50.686897 
L 150.832843 46.615223 
L 154.150199 49.108926 
L 157.467554 56.078174 
L 160.78491 47.019913 
L 164.102265 51.666029 
L 167.41962 55.96266 
L 170.736976 50.085747 
L 174.054331 45.569708 
L 177.371686 40.545884 
L 180.689042 55.050752 
L 184.006397 55.336166 
L 187.323753 48.207253 
L 190.641108 51.831705 
L 193.958463 45.846716 
L 197.275819 56.014691 
L 200.593174 54.517666 
L 203.910529 52.627993 
L 207.227885 55.437769 
L 210.54524 44.800927 
L 213.862596 51.712008 
L 217.179951 60.290055 
L 220.497306 55.807996 
L 223.814662 52.210274 
L 227.132017 58.226048 
L 230.449372 46.745048 
L 233.766728 57.169332 
L 237.084083 34.815733 
L 240.401439 49.46934 
L 243.718794 49.035209 
L 247.036149 54.175157 
L 250.353505 58.873725 
L 253.67086 43.889293 
L 256.988215 61.359758 
L 260.305571 47.005455 
L 263.622926 56.659992 
L 266.940282 45.995391 
L 270.257637 54.373614 
L 273.574992 56.461598 
L 276.892348 57.008322 
L 280.209703 59.816229 
L 283.527058 45.500508 
L 286.844414 49.577499 
L 290.161769 54.910567 
L 293.479124 50.943963 
L 296.79648 58.865151 
L 300.113835 52.66813 
L 303.431191 55.371344 
L 306.748546 56.30748 
L 310.065901 57.619182 
L 313.383257 48.265104 
L 316.700612 53.071285 
L 320.017967 47.879285 
L 323.335323 50.084591 
L 326.652678 54.436552 
L 329.970034 58.854896 
L 333.287389 43.962884 
L 336.604744 63.804561 
L 339.9221 50.631651 
L 343.239455 53.016985 
L 346.55681 54.15967 
L 349.874166 50.987715 
L 353.191521 58.857481 
L 356.508877 38.407172 
L 359.826232 51.420374 
L 363.143587 48.923456 
L 366.460943 60.039252 
L 369.778298 59.40597 
L 373.095653 47.474932 
" clip-path="url(#p3624ee582a)" style="fill: none; stroke: #1f77b4; stroke-width: 0.75; stroke-linecap: round"/>
    <defs>
     <path id="m0971849160" d="M 0 1.5 
C 0.397805 1.5 0.77937 1.341951 1.06066 1.06066 
C 1.341951 0.77937 1.5 0.397805 1.5 0 
C 1.5 -0.397805 1.341951 -0.77937 1.06066 -1.06066 
C 0.77937 -1.341951 0.397805 -1.5 0 -1.5 
C -0.397805 -1.5 -0.77937 -1.341951 -1.06066 -1.06066 
C -1.341951 -0.77937 -1.5 -0.397805 -1.5 0 
C -1.5 0.397805 -1.341951 0.77937 -1.06066 1.06066 
C -0.77937 1.341951 -0.397805 1.5 0 1.5 
z
" style="stroke: #ffffff; stroke-width: 0.75"/>
    </defs>
    <g clip-path="url(#p3624ee582a)">
     <use xlink:href="#m0971849160" x="44.677472" y="59.205979" style="fill: #1f77b4; stroke: #ffffff; stroke-width: 0.75"/>
     <use xlink:href="#m0971849160" x="47.994827" y="53.460299" style="fill: #1f77b4; stroke: #ffffff; stroke-width: 0.75"/>
     <use xlink:href="#m0971849160" x="51.312182" y="66.441055" style="fill: #1f77b4; stroke: #ffffff; stroke-width: 0.75"/>
     <use xlink:href="#m0971849160" x="54.629538" y="52.350753" style="fill: #1f77b4; stroke: #ffffff; stroke-width: 0.75"/>
     <use xlink:href="#m0971849160" x="57.946893" y="54.366764" style="fill: #1f77b4; stroke: #ffffff; stroke-width: 0.75"/>
     <use xlink:href="#m0971849160" x="61.264248" y="48.732185" style="fill: #1f77b4; stroke: #ffffff; stroke-width: 0.75"/>
     <use xlink:href="#m0971849160" x="64.581604" y="54.213928" style="fill: #1f77b4; stroke: #ffffff; stroke-width: 0.75"/>
     <use xlink:href="#m0971849160" x="67.898959" y="49.449145" style="fill: #1f77b4; stroke: #ffffff; stroke-width: 0.75"/>
     <use xlink:href="#m0971849160" x="71.216315" y="57.774161" style="fill: #1f77b4; stroke: #ffffff; stroke-width: 0.75"/>
     <use xlink:href="#m0971849160" x="74.53367" y="42.800026" style="fill: #1f77b4; stroke: #ffffff; stroke-width: 0.75"/>
     <use xlink:href="#m0971849160" x="77.851025" y="49.483902" style="fill: #1f77b4; stroke: #ffffff; stroke-width: 0.75"/>
     <use xlink:href="#m0971849160" x="81.168381" y="62.339709" style="fill: #1f77b4; stroke: #ffffff; stroke-width: 0.75"/>
     <use xlink:href="#m0971849160" x="84.485736" y="58.686972" style="fill: #1f77b4; stroke: #ffffff; stroke-width: 0.75"/>
     <use xlink:href="#m0971849160" x="87.803091" y="48.002659" style="fill: #1f77b4; stroke: #ffffff; stroke-width: 0.75"/>
     <use xlink:href="#m0971849160" x="91.120447" y="53.095578" style="fill: #1f77b4; stroke: #ffffff; stroke-width: 0.75"/>
     <use xlink:href="#m0971849160" x="94.437802" y="50.967016" style="fill: #1f77b4; stroke: #ffffff; stroke-width: 0.75"/>
     <use xlink:href="#m0971849160" x="97.755158" y="48.263255" style="fill: #1f77b4; stroke: #ffffff; stroke-width: 0.75"/>
     <use xlink:href="#m0971849160" x="101.072513" y="53.873226" style="fill: #1f77b4; stroke: #ffffff; stroke-width: 0.75"/>
     <use xlink:href="#m0971849160" x="104.389868" y="52.748761" style="fill: #1f77b4; stroke: #ffffff; stroke-width: 0.75"/>
     <use xlink:href="#m0971849160" x="107.707224" y="58.608148" style="fill: #1f77b4; stroke: #ffffff; stroke-width: 0.75"/>
     <use xlink:href="#m0971849160" x="111.024579" y="57.035956" style="fill: #1f77b4; stroke: #ffffff; stroke-width: 0.75"/>
     <use xlink:href="#m0971849160" x="114.341934" y="56.896275" style="fill: #1f77b4; stroke: #ffffff; stroke-width: 0.75"/>
     <use xlink:href="#m0971849160" x="117.65929" y="62.975722" style="fill: #1f77b4; stroke: #ffffff; stroke-width: 0.75"/>
     <use xlink:href="#m0971849160" x="120.976645" y="54.043609" style="fill: #1f77b4; stroke: #ffffff; stroke-width: 0.75"/>
     <use xlink:href="#m0971849160" x="124.294001" y="55.142395" style="fill: #1f77b4; stroke: #ffffff; stroke-width: 0.75"/>
     <use xlink:href="#m0971849160" x="127.611356" y="54.119301" style="fill: #1f77b4; stroke: #ffffff; stroke-width: 0.75"/>
     <use xlink:href="#m0971849160" x="130.928711" y="50.73586" style="fill: #1f77b4; stroke: #ffffff; stroke-width: 0.75"/>
     <use xlink:href="#m0971849160" x="134.246067" y="43.856111" style="fill: #1f77b4; stroke: #ffffff; stroke-width: 0.75"/>
     <use xlink:href="#m0971849160" x="137.563422" y="62.566767" style="fill: #1f77b4; stroke: #ffffff; stroke-width: 0.75"/>
     <use xlink:href="#m0971849160" x="140.880777" y="45.17376" style="fill: #1f77b4; stroke: #ffffff; stroke-width: 0.75"/>
     <use xlink:href="#m0971849160" x="144.198133" y="49.857512" style="fill: #1f77b4; stroke: #ffffff; stroke-width: 0.75"/>
     <use xlink:href="#m0971849160" x="147.515488" y="50.686897" style="fill: #1f77b4; stroke: #ffffff; stroke-width: 0.75"/>
     <use xlink:href="#m0971849160" x="150.832843" y="46.615223" style="fill: #1f77b4; stroke: #ffffff; stroke-width: 0.75"/>
     <use xlink:href="#m0971849160" x="154.150199" y="49.108926" style="fill: #1f77b4; stroke: #ffffff; stroke-width: 0.75"/>
     <use xlink:href="#m0971849160" x="157.467554" y="56.078174" style="fill: #1f77b4; stroke: #ffffff; stroke-width: 0.75"/>
     <use xlink:href="#m0971849160" x="160.78491" y="47.019913" style="fill: #1f77b4; stroke: #ffffff; stroke-width: 0.75"/>
     <use xlink:href="#m0971849160" x="164.102265" y="51.666029" style="fill: #1f77b4; stroke: #ffffff; stroke-width: 0.75"/>
     <use xlink:href="#m0971849160" x="167.41962" y="55.96266" style="fill: #1f77b4; stroke: #ffffff; stroke-width: 0.75"/>
     <use xlink:href="#m0971849160" x="170.736976" y="50.085747" style="fill: #1f77b4; stroke: #ffffff; stroke-width: 0.75"/>
     <use xlink:href="#m0971849160" x="174.054331" y="45.569708" style="fill: #1f77b4; stroke: #ffffff; stroke-width: 0.75"/>
     <use xlink:href="#m0971849160" x="177.371686" y="40.545884" style="fill: #1f77b4; stroke: #ffffff; stroke-width: 0.75"/>
     <use xlink:href="#m0971849160" x="180.689042" y="55.050752" style="fill: #1f77b4; stroke: #ffffff; stroke-width: 0.75"/>
     <use xlink:href="#m0971849160" x="184.006397" y="55.336166" style="fill: #1f77b4; stroke: #ffffff; stroke-width: 0.75"/>
     <use xlink:href="#m0971849160" x="187.323753" y="48.207253" style="fill: #1f77b4; stroke: #ffffff; stroke-width: 0.75"/>
     <use xlink:href="#m0971849160" x="190.641108" y="51.831705" style="fill: #1f77b4; stroke: #ffffff; stroke-width: 0.75"/>
     <use xlink:href="#m0971849160" x="193.958463" y="45.846716" style="fill: #1f77b4; stroke: #ffffff; stroke-width: 0.75"/>
     <use xlink:href="#m0971849160" x="197.275819" y="56.014691" style="fill: #1f77b4; stroke: #ffffff; stroke-width: 0.75"/>
     <use xlink:href="#m0971849160" x="200.593174" y="54.517666" style="fill: #1f77b4; stroke: #ffffff; stroke-width: 0.75"/>
     <use xlink:href="#m0971849160" x="203.910529" y="52.627993" style="fill: #1f77b4; stroke: #ffffff; stroke-width: 0.75"/>
     <use xlink:href="#m0971849160" x="207.227885" y="55.437769" style="fill: #1f77b4; stroke: #ffffff; stroke-width: 0.75"/>
     <use xlink:href="#m0971849160" x="210.54524" y="44.800927" style="fill: #1f77b4; stroke: #ffffff; stroke-width: 0.75"/>
     <use xlink:href="#m0971849160" x="213.862596" y="51.712008" style="fill: #1f77b4; stroke: #ffffff; stroke-width: 0.75"/>
     <use xlink:href="#m0971849160" x="217.179951" y="60.290055" style="fill: #1f77b4; stroke: #ffffff; stroke-width: 0.75"/>
     <use xlink:href="#m0971849160" x="220.497306" y="55.807996" style="fill: #1f77b4; stroke: #ffffff; stroke-width: 0.75"/>
     <use xlink:href="#m0971849160" x="223.814662" y="52.210274" style="fill: #1f77b4; stroke: #ffffff; stroke-width: 0.75"/>
     <use xlink:href="#m0971849160" x="227.132017" y="58.226048" style="fill: #1f77b4; stroke: #ffffff; stroke-width: 0.75"/>
     <use xlink:href="#m0971849160" x="230.449372" y="46.745048" style="fill: #1f77b4; stroke: #ffffff; stroke-width: 0.75"/>
     <use xlink:href="#m0971849160" x="233.766728" y="57.169332" style="fill: #1f77b4; stroke: #ffffff; stroke-width: 0.75"/>
     <use xlink:href="#m0971849160" x="237.084083" y="34.815733" style="fill: #1f77b4; stroke: #ffffff; stroke-width: 0.75"/>
     <use xlink:href="#m0971849160" x="240.401439" y="49.46934" style="fill: #1f77b4; stroke: #ffffff; stroke-width: 0.75"/>
     <use xlink:href="#m0971849160" x="243.718794" y="49.035209" style="fill: #1f77b4; stroke: #ffffff; stroke-width: 0.75"/>
     <use xlink:href="#m0971849160" x="247.036149" y="54.175157" style="fill: #1f77b4; stroke: #ffffff; stroke-width: 0.75"/>
     <use xlink:href="#m0971849160" x="250.353505" y="58.873725" style="fill: #1f77b4; stroke: #ffffff; stroke-width: 0.75"/>
     <use xlink:href="#m0971849160" x="253.67086" y="43.889293" style="fill: #1f77b4; stroke: #ffffff; stroke-width: 0.75"/>
     <use xlink:href="#m0971849160" x="256.988215" y="61.359758" style="fill: #1f77b4; stroke: #ffffff; stroke-width: 0.75"/>
     <use xlink:href="#m0971849160" x="260.305571" y="47.005455" style="fill: #1f77b4; stroke: #ffffff; stroke-width: 0.75"/>
     <use xlink:href="#m0971849160" x="263.622926" y="56.659992" style="fill: #1f77b4; stroke: #ffffff; stroke-width: 0.75"/>
     <use xlink:href="#m0971849160" x="266.940282" y="45.995391" style="fill: #1f77b4; stroke: #ffffff; stroke-width: 0.75"/>
     <use xlink:href="#m0971849160" x="270.257637" y="54.373614" style="fill: #1f77b4; stroke: #ffffff; stroke-width: 0.75"/>
     <use xlink:href="#m0971849160" x="273.574992" y="56.461598" style="fill: #1f77b4; stroke: #ffffff; stroke-width: 0.75"/>
     <use xlink:href="#m0971849160" x="276.892348" y="57.008322" style="fill: #1f77b4; stroke: #ffffff; stroke-width: 0.75"/>
     <use xlink:href="#m0971849160" x="280.209703" y="59.816229" style="fill: #1f77b4; stroke: #ffffff; stroke-width: 0.75"/>
     <use xlink:href="#m0971849160" x="283.527058" y="45.500508" style="fill: #1f77b4; stroke: #ffffff; stroke-width: 0.75"/>
     <use xlink:href="#m0971849160" x="286.844414" y="49.577499" style="fill: #1f77b4; stroke: #ffffff; stroke-width: 0.75"/>
     <use xlink:href="#m0971849160" x="290.161769" y="54.910567" style="fill: #1f77b4; stroke: #ffffff; stroke-width: 0.75"/>
     <use xlink:href="#m0971849160" x="293.479124" y="50.943963" style="fill: #1f77b4; stroke: #ffffff; stroke-width: 0.75"/>
     <use xlink:href="#m0971849160" x="296.79648" y="58.865151" style="fill: #1f77b4; stroke: #ffffff; stroke-width: 0.75"/>
     <use xlink:href="#m0971849160" x="300.113835" y="52.66813" style="fill: #1f77b4; stroke: #ffffff; stroke-width: 0.75"/>
     <use xlink:href="#m0971849160" x="303.431191" y="55.371344" style="fill: #1f77b4; stroke: #ffffff; stroke-width: 0.75"/>
     <use xlink:href="#m0971849160" x="306.748546" y="56.30748" style="fill: #1f77b4; stroke: #ffffff; stroke-width: 0.75"/>
     <use xlink:href="#m0971849160" x="310.065901" y="57.619182" style="fill: #1f77b4; stroke: #ffffff; stroke-width: 0.75"/>
     <use xlink:href="#m0971849160" x="313.383257" y="48.265104" style="fill: #1f77b4; stroke: #ffffff; stroke-width: 0.75"/>
     <use xlink:href="#m0971849160" x="316.700612" y="53.071285" style="fill: #1f77b4; stroke: #ffffff; stroke-width: 0.75"/>
     <use xlink:href="#m0971849160" x="320.017967" y="47.879285" style="fill: #1f77b4; stroke: #ffffff; stroke-width: 0.75"/>
     <use xlink:href="#m0971849160" x="323.335323" y="50.084591" style="fill: #1f77b4; stroke: #ffffff; stroke-width: 0.75"/>
     <use xlink:href="#m0971849160" x="326.652678" y="54.436552" style="fill: #1f77b4; stroke: #ffffff; stroke-width: 0.75"/>
     <use xlink:href="#m0971849160" x="329.970034" y="58.854896" style="fill: #1f77b4; stroke: #ffffff; stroke-width: 0.75"/>
     <use xlink:href="#m0971849160" x="333.287389" y="43.962884" style="fill: #1f77b4; stroke: #ffffff; stroke-width: 0.75"/>
     <use xlink:href="#m0971849160" x="336.604744" y="63.804561" style="fill: #1f77b4; stroke: #ffffff; stroke-width: 0.75"/>
     <use xlink:href="#m0971849160" x="339.9221" y="50.631651" style="fill: #1f77b4; stroke: #ffffff; stroke-width: 0.75"/>
     <use xlink:href="#m0971849160" x="343.239455" y="53.016985" style="fill: #1f77b4; stroke: #ffffff; stroke-width: 0.75"/>
     <use xlink:href="#m0971849160" x="346.55681" y="54.15967" style="fill: #1f77b4; stroke: #ffffff; stroke-width: 0.75"/>
     <use xlink:href="#m0971849160" x="349.874166" y="50.987715" style="fill: #1f77b4; stroke: #ffffff; stroke-width: 0.75"/>
     <use xlink:href="#m0971849160" x="353.191521" y="58.857481" style="fill: #1f77b4; stroke: #ffffff; stroke-width: 0.75"/>
     <use xlink:href="#m0971849160" x="356.508877" y="38.407172" style="fill: #1f77b4; stroke: #ffffff; stroke-width: 0.75"/>
     <use xlink:href="#m0971849160" x="359.826232" y="51.420374" style="fill: #1f77b4; stroke: #ffffff; stroke-width: 0.75"/>
     <use xlink:href="#m0971849160" x="363.143587" y="48.923456" style="fill: #1f77b4; stroke: #ffffff; stroke-width: 0.75"/>
     <use xlink:href="#m0971849160" x="366.460943" y="60.039252" style="fill: #1f77b4; stroke: #ffffff; stroke-width: 0.75"/>
     <use xlink:href="#m0971849160" x="369.778298" y="59.40597" style="fill: #1f77b4; stroke: #ffffff; stroke-width: 0.75"/>
     <use xlink:href="#m0971849160" x="373.095653" y="47.474932" style="fill: #1f77b4; stroke: #ffffff; stroke-width: 0.75"/>
    </g>
   </g>
   <g id="line2d_2">
    <path d="M 44.677472 85.46633 
L 47.994827 83.959291 
L 51.312182 86.473711 
L 54.629538 78.97624 
L 57.946893 83.577426 
L 61.264248 82.090524 
L 64.581604 80.67083 
L 67.898959 82.533485 
L 71.216315 82.209142 
L 74.53367 81.649046 
L 77.851025 82.791898 
L 81.168381 86.836346 
L 84.485736 83.366293 
L 87.803091 84.286668 
L 91.120447 82.044869 
L 94.437802 80.91949 
L 97.755158 78.789707 
L 101.072513 85.197267 
L 104.389868 82.875435 
L 107.707224 81.222194 
L 111.024579 80.848126 
L 114.341934 84.427281 
L 117.65929 86.601887 
L 120.976645 83.118758 
L 124.294001 86.137832 
L 127.611356 83.972097 
L 130.928711 79.577786 
L 134.246067 81.580685 
L 137.563422 84.133866 
L 140.880777 83.303685 
L 144.198133 84.037799 
L 147.515488 85.587722 
L 150.832843 82.190049 
L 154.150199 80.636436 
L 157.467554 81.646593 
L 160.78491 84.373122 
L 164.102265 78.587667 
L 167.41962 83.764904 
L 170.736976 80.377913 
L 174.054331 82.170722 
L 177.371686 78.991152 
L 180.689042 83.226733 
L 184.006397 84.890462 
L 187.323753 79.829133 
L 190.641108 83.609565 
L 193.958463 82.518332 
L 197.275819 86.446023 
L 200.593174 80.299785 
L 203.910529 83.650296 
L 207.227885 79.339801 
L 210.54524 83.193464 
L 213.862596 85.701481 
L 217.179951 83.594492 
L 220.497306 81.80462 
L 223.814662 83.328409 
L 227.132017 82.546587 
L 230.449372 79.141153 
L 233.766728 84.671699 
L 237.084083 81.365549 
L 240.401439 83.280441 
L 243.718794 80.919632 
L 247.036149 81.955573 
L 250.353505 87.226869 
L 253.67086 80.884303 
L 256.988215 81.033044 
L 260.305571 81.084751 
L 263.622926 81.221973 
L 266.940282 83.345199 
L 270.257637 78.271566 
L 273.574992 85.790497 
L 276.892348 83.372406 
L 280.209703 80.986969 
L 283.527058 81.618458 
L 286.844414 80.44883 
L 290.161769 83.709394 
L 293.479124 81.16309 
L 296.79648 84.643072 
L 300.113835 80.432671 
L 303.431191 79.936301 
L 306.748546 81.881829 
L 310.065901 81.425341 
L 313.383257 78.073782 
L 316.700612 82.436453 
L 320.017967 83.246378 
L 323.335323 86.157017 
L 326.652678 83.973119 
L 329.970034 81.366068 
L 333.287389 79.817362 
L 336.604744 83.60514 
L 339.9221 82.440819 
L 343.239455 79.265745 
L 346.55681 78.402156 
L 349.874166 85.161944 
L 353.191521 81.456922 
L 356.508877 81.351055 
L 359.826232 83.714155 
L 363.143587 82.899788 
L 366.460943 78.521615 
L 369.778298 81.688041 
L 373.095653 82.156734 
" clip-path="url(#p3624ee582a)" style="fill: none; stroke: #888888; stroke-width: 0.75; stroke-linecap: round"/>
    <defs>
     <path id="m5007cdfcc9" d="M 0 1.5 
C 0.397805 1.5 0.77937 1.341951 1.06066 1.06066 
C 1.341951 0.77937 1.5 0.397805 1.5 0 
C 1.5 -0.397805 1.341951 -0.77937 1.06066 -1.06066 
C 0.77937 -1.341951 0.397805 -1.5 0 -1.5 
C -0.397805 -1.5 -0.77937 -1.341951 -1.06066 -1.06066 
C -1.341951 -0.77937 -1.5 -0.397805 -1.5 0 
C -1.5 0.397805 -1.341951 0.77937 -1.06066 1.06066 
C -0.77937 1.341951 -0.397805 1.5 0 1.5 
z
" style="stroke: #ffffff; stroke-width: 0.75"/>
    </defs>
    <g clip-path="url(#p3624ee582a)">
     <use xlink:href="#m5007cdfcc9" x="44.677472" y="85.46633" style="fill: #888888; stroke: #ffffff; stroke-width: 0.75"/>
     <use xlink:href="#m5007cdfcc9" x="47.994827" y="83.959291" style="fill: #888888; stroke: #ffffff; stroke-width: 0.75"/>
     <use xlink:href="#m5007cdfcc9" x="51.312182" y="86.473711" style="fill: #888888; stroke: #ffffff; stroke-width: 0.75"/>
     <use xlink:href="#m5007cdfcc9" x="54.629538" y="78.97624" style="fill: #888888; stroke: #ffffff; stroke-width: 0.75"/>
     <use xlink:href="#m5007cdfcc9" x="57.946893" y="83.577426" style="fill: #888888; stroke: #ffffff; stroke-width: 0.75"/>
     <use xlink:href="#m5007cdfcc9" x="61.264248" y="82.090524" style="fill: #888888; stroke: #ffffff; stroke-width: 0.75"/>
     <use xlink:href="#m5007cdfcc9" x="64.581604" y="80.67083" style="fill: #888888; stroke: #ffffff; stroke-width: 0.75"/>
     <use xlink:href="#m5007cdfcc9" x="67.898959" y="82.533485" style="fill: #888888; stroke: #ffffff; stroke-width: 0.75"/>
     <use xlink:href="#m5007cdfcc9" x="71.216315" y="82.209142" style="fill: #888888; stroke: #ffffff; stroke-width: 0.75"/>
     <use xlink:href="#m5007cdfcc9" x="74.53367" y="81.649046" style="fill: #888888; stroke: #ffffff; stroke-width: 0.75"/>
     <use xlink:href="#m5007cdfcc9" x="77.851025" y="82.791898" style="fill: #888888; stroke: #ffffff; stroke-width: 0.75"/>
     <use xlink:href="#m5007cdfcc9" x="81.168381" y="86.836346" style="fill: #888888; stroke: #ffffff; stroke-width: 0.75"/>
     <use xlink:href="#m5007cdfcc9" x="84.485736" y="83.366293" style="fill: #888888; stroke: #ffffff; stroke-width: 0.75"/>
     <use xlink:href="#m5007cdfcc9" x="87.803091" y="84.286668" style="fill: #888888; stroke: #ffffff; stroke-width: 0.75"/>
     <use xlink:href="#m5007cdfcc9" x="91.120447" y="82.044869" style="fill: #888888; stroke: #ffffff; stroke-width: 0.75"/>
     <use xlink:href="#m5007cdfcc9" x="94.437802" y="80.91949" style="fill: #888888; stroke: #ffffff; stroke-width: 0.75"/>
     <use xlink:href="#m5007cdfcc9" x="97.755158" y="78.789707" style="fill: #888888; stroke: #ffffff; stroke-width: 0.75"/>
     <use xlink:href="#m5007cdfcc9" x="101.072513" y="85.197267" style="fill: #888888; stroke: #ffffff; stroke-width: 0.75"/>
     <use xlink:href="#m5007cdfcc9" x="104.389868" y="82.875435" style="fill: #888888; stroke: #ffffff; stroke-width: 0.75"/>
     <use xlink:href="#m5007cdfcc9" x="107.707224" y="81.222194" style="fill: #888888; stroke: #ffffff; stroke-width: 0.75"/>
     <use xlink:href="#m5007cdfcc9" x="111.024579" y="80.848126" style="fill: #888888; stroke: #ffffff; stroke-width: 0.75"/>
     <use xlink:href="#m5007cdfcc9" x="114.341934" y="84.427281" style="fill: #888888; stroke: #ffffff; stroke-width: 0.75"/>
     <use xlink:href="#m5007cdfcc9" x="117.65929" y="86.601887" style="fill: #888888; stroke: #ffffff; stroke-width: 0.75"/>
     <use xlink:href="#m5007cdfcc9" x="120.976645" y="83.118758" style="fill: #888888; stroke: #ffffff; stroke-width: 0.75"/>
     <use xlink:href="#m5007cdfcc9" x="124.294001" y="86.137832" style="fill: #888888; stroke: #ffffff; stroke-width: 0.75"/>
     <use xlink:href="#m5007cdfcc9" x="127.611356" y="83.972097" style="fill: #888888; stroke: #ffffff; stroke-width: 0.75"/>
     <use xlink:href="#m5007cdfcc9" x="130.928711" y="79.577786" style="fill: #888888; stroke: #ffffff; stroke-width: 0.75"/>
     <use xlink:href="#m5007cdfcc9" x="134.246067" y="81.580685" style="fill: #888888; stroke: #ffffff; stroke-width: 0.75"/>
     <use xlink:href="#m5007cdfcc9" x="137.563422" y="84.133866" style="fill: #888888; stroke: #ffffff; stroke-width: 0.75"/>
     <use xlink:href="#m5007cdfcc9" x="140.880777" y="83.303685" style="fill: #888888; stroke: #ffffff; stroke-width: 0.75"/>
     <use xlink:href="#m5007cdfcc9" x="144.198133" y="84.037799" style="fill: #888888; stroke: #ffffff; stroke-width: 0.75"/>
     <use xlink:href="#m5007cdfcc9" x="147.515488" y="85.587722" style="fill: #888888; stroke: #ffffff; stroke-width: 0.75"/>
     <use xlink:href="#m5007cdfcc9" x="150.832843" y="82.190049" style="fill: #888888; stroke: #ffffff; stroke-width: 0.75"/>
     <use xlink:href="#m5007cdfcc9" x="154.150199" y="80.636436" style="fill: #888888; stroke: #ffffff; stroke-width: 0.75"/>
     <use xlink:href="#m5007cdfcc9" x="157.467554" y="81.646593" style="fill: #888888; stroke: #ffffff; stroke-width: 0.75"/>
     <use xlink:href="#m5007cdfcc9" x="160.78491" y="84.373122" style="fill: #888888; stroke: #ffffff; stroke-width: 0.75"/>
     <use xlink:href="#m5007cdfcc9" x="164.102265" y="78.587667" style="fill: #888888; stroke: #ffffff; stroke-width: 0.75"/>
     <use xlink:href="#m5007cdfcc9" x="167.41962" y="83.764904" style="fill: #888888; stroke: #ffffff; stroke-width: 0.75"/>
     <use xlink:href="#m5007cdfcc9" x="170.736976" y="80.377913" style="fill: #888888; stroke: #ffffff; stroke-width: 0.75"/>
     <use xlink:href="#m5007cdfcc9" x="174.054331" y="82.170722" style="fill: #888888; stroke: #ffffff; stroke-width: 0.75"/>
     <use xlink:href="#m5007cdfcc9" x="177.371686" y="78.991152" style="fill: #888888; stroke: #ffffff; stroke-width: 0.75"/>
     <use xlink:href="#m5007cdfcc9" x="180.689042" y="83.226733" style="fill: #888888; stroke: #ffffff; stroke-width: 0.75"/>
     <use xlink:href="#m5007cdfcc9" x="184.006397" y="84.890462" style="fill: #888888; stroke: #ffffff; stroke-width: 0.75"/>
     <use xlink:href="#m5007cdfcc9" x="187.323753" y="79.829133" style="fill: #888888; stroke: #ffffff; stroke-width: 0.75"/>
     <use xlink:href="#m5007cdfcc9" x="190.641108" y="83.609565" style="fill: #888888; stroke: #ffffff; stroke-width: 0.75"/>
     <use xlink:href="#m5007cdfcc9" x="193.958463" y="82.518332" style="fill: #888888; stroke: #ffffff; stroke-width: 0.75"/>
     <use xlink:href="#m5007cdfcc9" x="197.275819" y="86.446023" style="fill: #888888; stroke: #ffffff; stroke-width: 0.75"/>
     <use xlink:href="#m5007cdfcc9" x="200.593174" y="80.299785" style="fill: #888888; stroke: #ffffff; stroke-width: 0.75"/>
     <use xlink:href="#m5007cdfcc9" x="203.910529" y="83.650296" style="fill: #888888; stroke: #ffffff; stroke-width: 0.75"/>
     <use xlink:href="#m5007cdfcc9" x="207.227885" y="79.339801" style="fill: #888888; stroke: #ffffff; stroke-width: 0.75"/>
     <use xlink:href="#m5007cdfcc9" x="210.54524" y="83.193464" style="fill: #888888; stroke: #ffffff; stroke-width: 0.75"/>
     <use xlink:href="#m5007cdfcc9" x="213.862596" y="85.701481" style="fill: #888888; stroke: #ffffff; stroke-width: 0.75"/>
     <use xlink:href="#m5007cdfcc9" x="217.179951" y="83.594492" style="fill: #888888; stroke: #ffffff; stroke-width: 0.75"/>
     <use xlink:href="#m5007cdfcc9" x="220.497306" y="81.80462" style="fill: #888888; stroke: #ffffff; stroke-width: 0.75"/>
     <use xlink:href="#m5007cdfcc9" x="223.814662" y="83.328409" style="fill: #888888; stroke: #ffffff; stroke-width: 0.75"/>
     <use xlink:href="#m5007cdfcc9" x="227.132017" y="82.546587" style="fill: #888888; stroke: #ffffff; stroke-width: 0.75"/>
     <use xlink:href="#m5007cdfcc9" x="230.449372" y="79.141153" style="fill: #888888; stroke: #ffffff; stroke-width: 0.75"/>
     <use xlink:href="#m5007cdfcc9" x="233.766728" y="84.671699" style="fill: #888888; stroke: #ffffff; stroke-width: 0.75"/>
     <use xlink:href="#m5007cdfcc9" x="237.084083" y="81.365549" style="fill: #888888; stroke: #ffffff; stroke-width: 0.75"/>
     <use xlink:href="#m5007cdfcc9" x="240.401439" y="83.280441" style="fill: #888888; stroke: #ffffff; stroke-width: 0.75"/>
     <use xlink:href="#m5007cdfcc9" x="243.718794" y="80.919632" style="fill: #888888; stroke: #ffffff; stroke-width: 0.75"/>
     <use xlink:href="#m5007cdfcc9" x="247.036149" y="81.955573" style="fill: #888888; stroke: #ffffff; stroke-width: 0.75"/>
     <use xlink:href="#m5007cdfcc9" x="250.353505" y="87.226869" style="fill: #888888; stroke: #ffffff; stroke-width: 0.75"/>
     <use xlink:href="#m5007cdfcc9" x="253.67086" y="80.884303" style="fill: #888888; stroke: #ffffff; stroke-width: 0.75"/>
     <use xlink:href="#m5007cdfcc9" x="256.988215" y="81.033044" style="fill: #888888; stroke: #ffffff; stroke-width: 0.75"/>
     <use xlink:href="#m5007cdfcc9" x="260.305571" y="81.084751" style="fill: #888888; stroke: #ffffff; stroke-width: 0.75"/>
     <use xlink:href="#m5007cdfcc9" x="263.622926" y="81.221973" style="fill: #888888; stroke: #ffffff; stroke-width: 0.75"/>
     <use xlink:href="#m5007cdfcc9" x="266.940282" y="83.345199" style="fill: #888888; stroke: #ffffff; stroke-width: 0.75"/>
     <use xlink:href="#m5007cdfcc9" x="270.257637" y="78.271566" style="fill: #888888; stroke: #ffffff; stroke-width: 0.75"/>
     <use xlink:href="#m5007cdfcc9" x="273.574992" y="85.790497" style="fill: #888888; stroke: #ffffff; stroke-width: 0.75"/>
     <use xlink:href="#m5007cdfcc9" x="276.892348" y="83.372406" style="fill: #888888; stroke: #ffffff; stroke-width: 0.75"/>
     <use xlink:href="#m5007cdfcc9" x="280.209703" y="80.986969" style="fill: #888888; stroke: #ffffff; stroke-width: 0.75"/>
     <use xlink:href="#m5007cdfcc9" x="283.527058" y="81.618458" style="fill: #888888; stroke: #ffffff; stroke-width: 0.75"/>
     <use xlink:href="#m5007cdfcc9" x="286.844414" y="80.44883" style="fill: #888888; stroke: #ffffff; stroke-width: 0.75"/>
     <use xlink:href="#m5007cdfcc9" x="290.161769" y="83.709394" style="fill: #888888; stroke: #ffffff; stroke-width: 0.75"/>
     <use xlink:href="#m5007cdfcc9" x="293.479124" y="81.16309" style="fill: #888888; stroke: #ffffff; stroke-width: 0.75"/>
     <use xlink:href="#m5007cdfcc9" x="296.79648" y="84.643072" style="fill: #888888; stroke: #ffffff; stroke-width: 0.75"/>
     <use xlink:href="#m5007cdfcc9" x="300.113835" y="80.432671" style="fill: #888888; stroke: #ffffff; stroke-width: 0.75"/>
     <use xlink:href="#m5007cdfcc9" x="303.431191" y="79.936301" style="fill: #888888; stroke: #ffffff; stroke-width: 0.75"/>
     <use xlink:href="#m5007cdfcc9" x="306.748546" y="81.881829" style="fill: #888888; stroke: #ffffff; stroke-width: 0.75"/>
     <use xlink:href="#m5007cdfcc9" x="310.065901" y="81.425341" style="fill: #888888; stroke: #ffffff; stroke-width: 0.75"/>
     <use xlink:href="#m5007cdfcc9" x="313.383257" y="78.073782" style="fill: #888888; stroke: #ffffff; stroke-width: 0.75"/>
     <use xlink:href="#m5007cdfcc9" x="316.700612" y="82.436453" style="fill: #888888; stroke: #ffffff; stroke-width: 0.75"/>
     <use xlink:href="#m5007cdfcc9" x="320.017967" y="83.246378" style="fill: #888888; stroke: #ffffff; stroke-width: 0.75"/>
     <use xlink:href="#m5007cdfcc9" x="323.335323" y="86.157017" style="fill: #888888; stroke: #ffffff; stroke-width: 0.75"/>
     <use xlink:href="#m5007cdfcc9" x="326.652678" y="83.973119" style="fill: #888888; stroke: #ffffff; stroke-width: 0.75"/>
     <use xlink:href="#m5007cdfcc9" x="329.970034" y="81.366068" style="fill: #888888; stroke: #ffffff; stroke-width: 0.75"/>
     <use xlink:href="#m5007cdfcc9" x="333.287389" y="79.817362" style="fill: #888888; stroke: #ffffff; stroke-width: 0.75"/>
     <use xlink:href="#m5007cdfcc9" x="336.604744" y="83.60514" style="fill: #888888; stroke: #ffffff; stroke-width: 0.75"/>
     <use xlink:href="#m5007cdfcc9" x="339.9221" y="82.440819" style="fill: #888888; stroke: #ffffff; stroke-width: 0.75"/>
     <use xlink:href="#m5007cdfcc9" x="343.239455" y="79.265745" style="fill: #888888; stroke: #ffffff; stroke-width: 0.75"/>
     <use xlink:href="#m5007cdfcc9" x="346.55681" y="78.402156" style="fill: #888888; stroke: #ffffff; stroke-width: 0.75"/>
     <use xlink:href="#m5007cdfcc9" x="349.874166" y="85.161944" style="fill: #888888; stroke: #ffffff; stroke-width: 0.75"/>
     <use xlink:href="#m5007cdfcc9" x="353.191521" y="81.456922" style="fill: #888888; stroke: #ffffff; stroke-width: 0.75"/>
     <use xlink:href="#m5007cdfcc9" x="356.508877" y="81.351055" style="fill: #888888; stroke: #ffffff; stroke-width: 0.75"/>
     <use xlink:href="#m5007cdfcc9" x="359.826232" y="83.714155" style="fill: #888888; stroke: #ffffff; stroke-width: 0.75"/>
     <use xlink:href="#m5007cdfcc9" x="363.143587" y="82.899788" style="fill: #888888; stroke: #ffffff; stroke-width: 0.75"/>
     <use xlink:href="#m5007cdfcc9" x="366.460943" y="78.521615" style="fill: #888888; stroke: #ffffff; stroke-width: 0.75"/>
     <use xlink:href="#m5007cdfcc9" x="369.778298" y="81.688041" style="fill: #888888; stroke: #ffffff; stroke-width: 0.75"/>
     <use xlink:href="#m5007cdfcc9" x="373.095653" y="82.156734" style="fill: #888888; stroke: #ffffff; stroke-width: 0.75"/>
    </g>
   </g>
   <g id="line2d_3"/>
   <g id="line2d_4"/>
   <g id="line2d_5">
    <path d="M 28.256563 34.872429 
L 389.516562 34.872429 
" clip-path="url(#p3624ee582a)" style="fill: none; stroke-dasharray: 2.59,1.12; stroke-dashoffset: 0; stroke: #ff0000; stroke-opacity: 0.5; stroke-width: 0.7"/>
   </g>
   <g id="patch_3">
    <path d="M 28.256563 192.898594 
L 28.256563 14.278594 
" style="fill: none; stroke: #000000; stroke-linejoin: miter; stroke-linecap: square"/>
   </g>
   <g id="patch_4">
    <path d="M 28.256563 192.898594 
L 389.516562 192.898594 
" style="fill: none; stroke: #000000; stroke-linejoin: miter; stroke-linecap: square"/>
   </g>
   <g id="text_18">
    <text style="font-size: 7px; font-family: 'Arial', 'Helvetica', 'DejaVu Sans', sans-serif; text-anchor: start; fill: #ff0000" x="223.814662" y="34.242006" transform="rotate(-0 223.814662 34.242006)">global max 0.752 (step 59)</text>
   </g>
   <g id="text_19">
    <text style="font-size: 9px; font-family: 'Arial', 'Helvetica', 'DejaVu Sans', sans-serif; text-anchor: start" x="28.256563" y="8.278594" transform="rotate(-0 28.256563 8.278594)">REINVENT RL trajectory — agent diversified but did not converge</text>
   </g>
   <g id="legend_1">
    <g id="line2d_6">
     <path d="M 331.24625 178.269687 
L 336.24625 178.269687 
L 341.24625 178.269687 
" style="fill: none; stroke: #1f77b4; stroke-width: 0.75; stroke-linecap: round"/>
     <g>
      <use xlink:href="#m0971849160" x="336.24625" y="178.269687" style="fill: #1f77b4; stroke: #ffffff; stroke-width: 0.75"/>
     </g>
    </g>
    <g id="text_20">
     <text style="font-size: 5px; font-family: 'Arial', 'Helvetica', 'DejaVu Sans', sans-serif; text-anchor: start" x="345.24625" y="180.019687" transform="rotate(-0 345.24625 180.019687)">max per step</text>
    </g>
    <g id="line2d_7">
     <path d="M 331.24625 185.60875 
L 336.24625 185.60875 
L 341.24625 185.60875 
" style="fill: none; stroke: #888888; stroke-width: 0.75; stroke-linecap: round"/>
     <g>
      <use xlink:href="#m5007cdfcc9" x="336.24625" y="185.60875" style="fill: #888888; stroke: #ffffff; stroke-width: 0.75"/>
     </g>
    </g>
    <g id="text_21">
     <text style="font-size: 5px; font-family: 'Arial', 'Helvetica', 'DejaVu Sans', sans-serif; text-anchor: start" x="345.24625" y="187.35875" transform="rotate(-0 345.24625 187.35875)">mean (nonzero)</text>
    </g>
   </g>
  </g>
 </g>
 <defs>
  <clipPath id="p3624ee582a">
   <rect x="28.256563" y="14.278594" width="361.26" height="178.62"/>
  </clipPath>
 </defs>
</svg>
